<?xml version="1.0" standalone="no"?>
<!DOCTYPE svg PUBLIC "-//W3C//DTD SVG 20010904//EN"
 "http://www.w3.org/TR/2001/REC-SVG-20010904/DTD/svg10.dtd">
<svg version="1.0" xmlns="http://www.w3.org/2000/svg"
 width="200.000000pt" height="200.000000pt" viewBox="0 0 200.000000 200.000000"
 preserveAspectRatio="xMidYMid meet">
<metadata>
Created by potrace 1.14, written by Peter Selinger 2001-2017
</metadata>
<g transform="translate(0.000000,200.000000) scale(0.100000,-0.100000)"
fill="#000000" stroke="none">
<path d="M915 1810 c-160 -17 -290 -70 -416 -170 -258 -205 -364 -513 -289
-843 50 -223 258 -462 480 -553 186 -75 440 -75 622 2 185 77 365 257 442 442
77 184 77 440 0 624 -77 185 -263 370 -444 444 -112 45 -269 67 -395 54z m310
-62 c244 -72 448 -276 524 -523 21 -68 25 -101 25 -220 1 -118 -3 -153 -22
-220 -72 -251 -286 -465 -537 -537 -67 -19 -102 -23 -220 -22 -119 0 -152 4
-220 25 -246 76 -448 277 -524 524 -21 69 -25 99 -25 225 0 126 4 156 25 225
70 228 268 438 481 510 151 52 346 57 493 13z"/>
<path d="M954 1692 c-6 -4 -14 -16 -18 -27 -8 -19 -8 -19 -19 3 -10 23 -32 28
-55 13 -10 -6 -11 -22 -6 -59 5 -42 10 -52 26 -52 10 0 21 6 24 14 3 8 12 12
21 9 8 -3 19 0 24 8 7 11 9 11 9 -3 0 -12 8 -18 25 -18 21 0 25 5 25 29 0 76
-21 107 -56 83z"/>
<path d="M1066 1691 c-2 -3 -7 -28 -11 -55 -8 -56 0 -66 55 -66 45 0 65 13 56
35 -3 10 -1 24 5 32 10 11 9 17 -2 28 -16 16 -97 37 -103 26z"/>
<path d="M873 1505 c-232 -63 -403 -283 -403 -519 0 -140 60 -283 160 -383
106 -106 230 -156 385 -156 153 1 282 58 389 174 69 74 112 162 133 268 14 71
15 96 5 165 -33 224 -205 411 -420 455 -71 15 -185 13 -249 -4z"/>
<path d="M323 954 c-3 -8 -1 -20 5 -26 16 -16 42 -2 42 22 0 24 -38 28 -47 4z"/>
<path d="M1640 954 c-11 -12 -10 -18 3 -32 16 -15 18 -15 34 0 13 14 14 20 3
32 -7 9 -16 16 -20 16 -4 0 -13 -7 -20 -16z"/>
<path d="M398 688 c-43 -25 -44 -29 -22 -63 16 -25 54 -35 54 -15 0 6 12 15
26 20 20 8 24 14 18 33 -7 24 -23 47 -33 47 -3 0 -23 -10 -43 -22z m52 -23 c0
-8 -4 -15 -10 -15 -5 0 -10 7 -10 15 0 8 5 15 10 15 6 0 10 -7 10 -15z m-32
-23 c2 -7 -3 -12 -12 -12 -9 0 -16 7 -16 16 0 17 22 14 28 -4z"/>
<path d="M1570 685 c-25 -30 10 -61 38 -33 17 17 28 2 12 -17 -15 -18 1 -20
18 -3 16 16 15 45 -2 51 -7 3 -24 -2 -36 -10 -21 -15 -22 -15 -11 6 13 24 0
29 -19 6z"/>
<path d="M1510 595 c-17 -20 -5 -62 21 -70 23 -8 59 19 59 43 0 13 -3 13 -18
-1 -27 -24 -35 -21 -17 6 8 13 12 27 8 30 -11 12 -40 8 -53 -8z m22 -27 c-7
-7 -12 -8 -12 -2 0 14 12 26 19 19 2 -3 -1 -11 -7 -17z"/>
<path d="M451 566 c-27 -29 -10 -47 19 -21 11 10 26 15 35 12 9 -4 15 -1 15 7
0 13 -20 26 -39 26 -4 0 -18 -11 -30 -24z"/>
<path d="M1420 550 c0 -6 4 -16 10 -23 54 -67 59 -72 70 -61 8 8 2 19 -24 42
-20 17 -36 36 -36 42 0 5 -4 10 -10 10 -5 0 -10 -5 -10 -10z"/>
<path d="M532 508 c-34 -34 6 -90 48 -68 35 19 20 80 -20 80 -9 0 -21 -5 -28
-12z m43 -29 c0 -7 -8 -15 -17 -17 -18 -3 -25 18 -11 32 10 10 28 1 28 -15z"/>
<path d="M1394 458 c6 -30 5 -30 -12 -15 -20 19 -42 22 -42 8 0 -13 50 -51 66
-51 15 0 19 45 8 74 -11 29 -27 17 -20 -16z"/>
<path d="M636 444 c-11 -29 -7 -64 8 -64 8 0 18 6 22 12 6 9 10 5 14 -12 8
-33 28 -32 53 2 26 35 13 51 -14 18 l-21 -25 6 27 c7 33 -9 45 -33 24 -17 -16
-18 -15 -14 9 6 27 -11 35 -21 9z"/>
<path d="M1250 416 c-28 -35 11 -93 48 -70 35 22 22 84 -18 84 -10 0 -23 -7
-30 -14z m42 -48 c-16 -16 -37 4 -28 28 6 16 8 16 23 1 13 -13 15 -19 5 -29z"/>
<path d="M1147 403 c-4 -3 -7 -16 -8 -27 0 -21 0 -21 -16 2 -8 12 -22 22 -30
22 -19 0 -14 -91 6 -98 10 -3 12 3 9 27 -4 30 -4 30 14 14 17 -15 20 -15 28
-3 6 8 10 20 11 25 1 6 4 -3 8 -19 6 -30 31 -49 31 -24 0 55 -32 103 -53 81z"/>
<path d="M784 389 c-4 -7 2 -20 17 -32 l24 -20 -28 7 c-22 5 -28 3 -25 -6 3
-7 19 -14 36 -16 25 -3 32 1 32 14 0 9 -8 23 -17 31 -17 13 -16 14 5 10 15 -4
22 -1 19 6 -5 17 -53 21 -63 6z"/>
<path d="M894 366 c-3 -8 -4 -25 -2 -38 2 -18 10 -24 36 -26 19 -2 32 1 32 8
0 7 -6 10 -13 7 -8 -3 -20 -1 -28 4 -10 6 -7 9 13 9 31 0 41 11 32 34 -8 20
-63 21 -70 2z m43 -12 c-3 -3 -12 -4 -19 -1 -8 3 -5 6 6 6 11 1 17 -2 13 -5z"/>
</g>
</svg>
